solid OpenSCAD_Model
  facet normal -0.234447 -0.96914 0.0761683
    outer loop
      vertex 6.55004 -14.5851 30
      vertex 6.77374 -14.4565 32.3238
      vertex 4.619 -14.1179 30
    endloop
  endfacet
  facet normal 0.068277 -0.795346 -0.602298
    outer loop
      vertex 9.89764 -14.8653 30
      vertex 9.33632 -16.7065 32.3677
      vertex 6.56269 -15.9204 31.0152
    endloop
  endfacet
  facet normal 0.0682758 -0.795346 -0.602298
    outer loop
      vertex 9.33632 -16.7065 32.3677
      vertex 9.89764 -14.8653 30
      vertex 10.1952 -14.8397 30
    endloop
  endfacet
  facet normal 0.231022 -0.953916 0.191503
    outer loop
      vertex 5.03794 -17.639 40
      vertex 7.10947 -18.0548 35.4297
      vertex 5.95767 -17.4163 40
    endloop
  endfacet
  facet normal 0.231021 -0.953916 0.191503
    outer loop
      vertex 7.10947 -18.0548 35.4297
      vertex 5.03794 -17.639 40
      vertex 3.40961 -19.1075 34.6497
    endloop
  endfacet
  facet normal 0.880082 -0.409547 0.240263
    outer loop
      vertex 11.2127 -15.4404 33.209
      vertex 13.5935 -6.34045 40
      vertex 10.2582 -13.5076 40
    endloop
  endfacet
  facet normal 0.958097 0.0179597 0.285879
    outer loop
      vertex 14.5779 6.0678 40
      vertex 15.3332 8.63437 37.3076
      vertex 14.5417 8.00036 40
    endloop
  endfacet
  facet normal 0.958097 0.0179598 0.285879
    outer loop
      vertex 15.3332 8.63437 37.3076
      vertex 14.5779 6.0678 40
      vertex 15.8633 3.30531 35.8657
    endloop
  endfacet
  facet normal 0.961491 0.040572 0.271825
    outer loop
      vertex 14.7783 1.3192 40
      vertex 15.8633 3.30531 35.8657
      vertex 14.5779 6.0678 40
    endloop
  endfacet
  facet normal 0.649596 -0.702306 0.291189
    outer loop
      vertex 11.2127 -15.4404 33.209
      vertex 10.2582 -13.5076 40
      vertex 6.65142 -16.8437 40
    endloop
  endfacet
  facet normal 0.61482 -0.744917 0.259027
    outer loop
      vertex 7.10947 -18.0548 35.4297
      vertex 6.65142 -16.8437 40
      vertex 5.95767 -17.4163 40
    endloop
  endfacet
  facet normal 0.614821 -0.744916 0.259026
    outer loop
      vertex 6.65142 -16.8437 40
      vertex 7.10947 -18.0548 35.4297
      vertex 11.2127 -15.4404 33.209
    endloop
  endfacet
  facet normal 0.960273 -0.278568 0.01662
    outer loop
      vertex 14.2638 -5.05952 30.9197
      vertex 14.8536 -2.70286 36.3423
      vertex 11.2127 -15.4404 33.209
    endloop
  endfacet
  facet normal 0.95739 -0.285056 0.0463431
    outer loop
      vertex 13.5935 -6.34045 40
      vertex 14.8536 -2.70286 36.3423
      vertex 13.967 -5.08588 40
    endloop
  endfacet
  facet normal 0.95739 -0.285056 0.0463433
    outer loop
      vertex 14.8536 -2.70286 36.3423
      vertex 13.5935 -6.34045 40
      vertex 11.2127 -15.4404 33.209
    endloop
  endfacet
  facet normal 0.997291 -0.0450742 -0.0581292
    outer loop
      vertex 15.8633 3.30531 35.8657
      vertex 15.5792 4.58369 30
      vertex 15.8536 8.38199 31.7624
    endloop
  endfacet
  facet normal 0.997291 -0.0450743 -0.0581292
    outer loop
      vertex 15.5792 4.58369 30
      vertex 15.8633 3.30531 35.8657
      vertex 15.4394 1.4894 30
    endloop
  endfacet
  facet normal 0.997536 -0.0485733 -0.0506263
    outer loop
      vertex 15.7027 7.12058 30
      vertex 15.8536 8.38199 31.7624
      vertex 15.5792 4.58369 30
    endloop
  endfacet
  facet normal 0.960062 -0.258639 0.106708
    outer loop
      vertex 11.2127 -15.4404 33.209
      vertex 13.7734 -7.25933 30
      vertex 14.2638 -5.05952 30.9197
    endloop
  endfacet
  facet normal 0.960062 -0.258639 0.106709
    outer loop
      vertex 13.7734 -7.25933 30
      vertex 11.2127 -15.4404 33.209
      vertex 12.5638 -11.7492 30
    endloop
  endfacet
  facet normal 0.985729 -0.167208 -0.0194831
    outer loop
      vertex 15.8633 3.30531 35.8657
      vertex 15.221 0.202359 30
      vertex 15.4394 1.4894 30
    endloop
  endfacet
  facet normal 0.985729 -0.167209 -0.019483
    outer loop
      vertex 15.221 0.202359 30
      vertex 15.8633 3.30531 35.8657
      vertex 14.8536 -2.70286 36.3423
    endloop
  endfacet
  facet normal 0.982644 -0.183506 -0.0271273
    outer loop
      vertex 14.8536 -2.70286 36.3423
      vertex 14.6373 -2.92353 30
      vertex 15.221 0.202359 30
    endloop
  endfacet
  facet normal 0.982644 -0.183506 -0.0271273
    outer loop
      vertex 14.6373 -2.92353 30
      vertex 14.8536 -2.70286 36.3423
      vertex 14.2638 -5.05952 30.9197
    endloop
  endfacet
  facet normal 0.280242 -0.829048 -0.483885
    outer loop
      vertex 3.95367 -16.2097 30
      vertex 6.56269 -15.9204 31.0152
      vertex 3.40961 -19.1075 34.6497
    endloop
  endfacet
  facet normal 0.280242 -0.829048 -0.483884
    outer loop
      vertex 6.56269 -15.9204 31.0152
      vertex 3.95367 -16.2097 30
      vertex 5.12985 -15.8121 30
    endloop
  endfacet
  facet normal 0.0408961 -0.828174 0.558977
    outer loop
      vertex 1.76723 -19.4685 30
      vertex 1.84483 -18.4523 31.5
      vertex 0.363203 -19.5378 30
    endloop
  endfacet
  facet normal 0.510797 -0.755167 -0.410864
    outer loop
      vertex 3.95367 -16.2097 30
      vertex 1.84483 -18.4523 31.5
      vertex 3.29812 -16.6531 30
    endloop
  endfacet
  facet normal 0.510797 -0.755167 -0.410864
    outer loop
      vertex 1.84483 -18.4523 31.5
      vertex 3.95367 -16.2097 30
      vertex 3.40961 -19.1075 34.6497
    endloop
  endfacet
  facet normal 0.7493 -0.568926 -0.338929
    outer loop
      vertex 12.5638 -11.7492 30
      vertex 11.2127 -15.4404 33.209
      vertex 10.2623 -14.7804 30
    endloop
  endfacet
  facet normal 0.625235 -0.706967 -0.330573
    outer loop
      vertex 10.2623 -14.7804 30
      vertex 9.33632 -16.7065 32.3677
      vertex 10.1952 -14.8397 30
    endloop
  endfacet
  facet normal 0.625231 -0.706969 -0.330576
    outer loop
      vertex 9.33632 -16.7065 32.3677
      vertex 10.2623 -14.7804 30
      vertex 11.2127 -15.4404 33.209
    endloop
  endfacet
  facet normal 0.549233 -0.835067 0.0317035
    outer loop
      vertex 9.33632 -16.7065 32.3677
      vertex 11.2127 -15.4404 33.209
      vertex 7.10947 -18.0548 35.4297
    endloop
  endfacet
  facet normal 0.279484 -0.959793 0.0261773
    outer loop
      vertex 9.2397 -13.8019 30
      vertex 6.77374 -14.4565 32.3238
      vertex 6.55004 -14.5851 30
    endloop
  endfacet
  facet normal 0.993168 0.0744987 0.0898189
    outer loop
      vertex 15.8633 3.30531 35.8657
      vertex 15.8536 8.38199 31.7624
      vertex 15.3332 8.63437 37.3076
    endloop
  endfacet
  facet normal 0.521717 0.547657 -0.654128
    outer loop
      vertex -5.33741 -14.6911 32.9823
      vertex -5.51833 -16.0397 31.7089
      vertex -9.60094 -14.1399 30.0432
    endloop
  endfacet
  facet normal -0.79646 -0.113048 -0.59403
    outer loop
      vertex -3.16231 -14.3447 30
      vertex -2.95614 -15.7972 30
      vertex -5.33741 -14.6911 32.9823
    endloop
  endfacet
  facet normal -0.0959133 -0.764767 -0.637127
    outer loop
      vertex -5.51833 -16.0397 31.7089
      vertex -8.39417 -16.4769 32.6667
      vertex -9.60094 -14.1399 30.0432
    endloop
  endfacet
  facet normal -0.0500369 -0.993829 0.0989949
    outer loop
      vertex 3.40961 -19.1075 34.6497
      vertex -0.909729 -18.3839 39.7309
      vertex -4.60471 -18.6057 35.6359
    endloop
  endfacet
  facet normal -0.083383 -0.98034 -0.178832
    outer loop
      vertex -0.804413 -18.414 32.8129
      vertex 3.40961 -19.1075 34.6497
      vertex -4.60471 -18.6057 35.6359
    endloop
  endfacet
  facet normal -0.958209 -0.255472 0.128721
    outer loop
      vertex -14.2566 -2.29548 30.4099
      vertex -11.7503 -6.86405 40
      vertex -12.0476 -5.74882 40
    endloop
  endfacet
  facet normal -0.958209 -0.255472 0.128721
    outer loop
      vertex -11.7503 -6.86405 40
      vertex -14.2566 -2.29548 30.4099
      vertex -11.9856 -10.667 30.7003
    endloop
  endfacet
  facet normal -0.963849 -0.226402 0.140488
    outer loop
      vertex -14.2566 -2.29548 30.4099
      vertex -12.4838 -3.89184 40
      vertex -14.7126 2.99267 35.8037
    endloop
  endfacet
  facet normal -0.963849 -0.226402 0.140488
    outer loop
      vertex -12.4838 -3.89184 40
      vertex -14.2566 -2.29548 30.4099
      vertex -12.0476 -5.74882 40
    endloop
  endfacet
  facet normal -0.979449 0.0410781 0.197462
    outer loop
      vertex -14.7126 2.99267 35.8037
      vertex -13.7133 6.64726 40
      vertex -14.8114 9.53426 33.9528
    endloop
  endfacet
  facet normal -0.97945 0.0410806 0.19746
    outer loop
      vertex -13.7133 6.64726 40
      vertex -14.7126 2.99267 35.8037
      vertex -13.7222 6.43391 40
    endloop
  endfacet
  facet normal -0.99187 -0.112227 0.0599936
    outer loop
      vertex -14.8528 1.12993 30
      vertex -14.7126 2.99267 35.8037
      vertex -15.1344 3.61803 30
    endloop
  endfacet
  facet normal -0.604463 -0.708865 0.363503
    outer loop
      vertex -5.5591 -16.3474 40
      vertex -8.12393 -14.1603 40
      vertex -9.45332 -15.8336 34.5263
    endloop
  endfacet
  facet normal -0.289681 -0.90538 0.310438
    outer loop
      vertex -4.20539 -17.2371 40
      vertex -0.909729 -18.3839 39.7309
      vertex -1.24938 -18.1829 40
    endloop
  endfacet
  facet normal -0.289681 -0.90538 0.310439
    outer loop
      vertex -0.909729 -18.3839 39.7309
      vertex -4.20539 -17.2371 40
      vertex -4.60471 -18.6057 35.6359
    endloop
  endfacet
  facet normal -0.750739 -0.585683 0.30556
    outer loop
      vertex -9.61297 -14.1471 30
      vertex -9.60094 -14.1399 30.0432
      vertex -9.66467 -14.0808 30
    endloop
  endfacet
  facet normal -0.751878 -0.57672 0.319489
    outer loop
      vertex -9.66467 -14.0808 30
      vertex -11.9856 -10.667 30.7003
      vertex -12.2049 -10.7691 30
    endloop
  endfacet
  facet normal -0.751876 -0.57672 0.319494
    outer loop
      vertex -11.9856 -10.667 30.7003
      vertex -9.66467 -14.0808 30
      vertex -9.60094 -14.1399 30.0432
    endloop
  endfacet
  facet normal 0.202773 -0.877433 0.434735
    outer loop
      vertex 0.363203 -19.5378 30
      vertex -0.804413 -18.414 32.8129
      vertex -0.0845951 -19.6413 30
    endloop
  endfacet
  facet normal 0.202771 -0.877434 0.434734
    outer loop
      vertex -0.804413 -18.414 32.8129
      vertex 0.363203 -19.5378 30
      vertex 1.84483 -18.4523 31.5
    endloop
  endfacet
  facet normal -0.307009 -0.82783 -0.469514
    outer loop
      vertex -0.804413 -18.414 32.8129
      vertex -4.60471 -18.6057 35.6359
      vertex -5.51833 -16.0397 31.7089
    endloop
  endfacet
  facet normal -0.335454 -0.852448 -0.401002
    outer loop
      vertex -3.35326 -16.0877 30
      vertex -0.804413 -18.414 32.8129
      vertex -5.51833 -16.0397 31.7089
    endloop
  endfacet
  facet normal -0.335454 -0.852448 -0.401002
    outer loop
      vertex -0.804413 -18.414 32.8129
      vertex -3.35326 -16.0877 30
      vertex -1.93769 -16.6448 30
    endloop
  endfacet
  facet normal -0.498966 -0.866482 0.0155577
    outer loop
      vertex -8.39417 -16.4769 32.6667
      vertex -4.60471 -18.6057 35.6359
      vertex -9.45332 -15.8336 34.5263
    endloop
  endfacet
  facet normal -0.751161 -0.62532 -0.211499
    outer loop
      vertex -8.39417 -16.4769 32.6667
      vertex -9.45332 -15.8336 34.5263
      vertex -9.60094 -14.1399 30.0432
    endloop
  endfacet
  facet normal -0.97444 -0.215084 -0.0648524
    outer loop
      vertex -14.2345 -2.27219 30
      vertex -14.2566 -2.29548 30.4099
      vertex -14.4619 -1.24193 30
    endloop
  endfacet
  facet normal -0.850447 -0.525928 0.0118475
    outer loop
      vertex -0.0845951 -19.6413 30
      vertex -0.804413 -18.414 32.8129
      vertex -1.93769 -16.6448 30
    endloop
  endfacet
  facet normal -0.957981 -0.0649847 0.279374
    outer loop
      vertex -13.2997 0.204366 40
      vertex -13.7222 6.43391 40
      vertex -14.7126 2.99267 35.8037
    endloop
  endfacet
  facet normal 0.294957 0.948718 0.113729
    outer loop
      vertex 8.44128 19.2171 32.6616
      vertex 4.96262 20.5871 30.2555
      vertex 3.59787 20.2888 36.2831
    endloop
  endfacet
  facet normal 0.146236 0.875493 0.460573
    outer loop
      vertex 8.21877 17.5616 40
      vertex 3.59787 20.2888 36.2831
      vertex 2.05362 18.5914 40
    endloop
  endfacet
  facet normal 0.545972 0.814165 0.197613
    outer loop
      vertex 8.44128 19.2171 32.6616
      vertex 8.35393 17.4945 40
      vertex 11.8583 16.323 35.1447
    endloop
  endfacet
  facet normal 0.545982 0.814158 0.197612
    outer loop
      vertex 8.35393 17.4945 40
      vertex 8.44128 19.2171 32.6616
      vertex 8.30556 17.527 40
    endloop
  endfacet
  facet normal 0.695424 0.469916 0.543659
    outer loop
      vertex 12.8757 12.552 40
      vertex 12.9818 12.8701 39.5892
      vertex 12.5869 12.9793 40
    endloop
  endfacet
  facet normal 0.853876 0.486314 -0.185459
    outer loop
      vertex 14.568 12.5457 32.6581
      vertex 14.1543 12.2585 30
      vertex 12.1438 15.7885 30
    endloop
  endfacet
  facet normal 0.807261 0.589964 -0.0164933
    outer loop
      vertex 11.8583 16.323 35.1447
      vertex 12.1438 15.7885 30
      vertex 11.7853 16.2791 30
    endloop
  endfacet
  facet normal 0.80726 0.589965 -0.0164934
    outer loop
      vertex 12.1438 15.7885 30
      vertex 11.8583 16.323 35.1447
      vertex 14.568 12.5457 32.6581
    endloop
  endfacet
  facet normal 0.434204 0.892868 -0.119391
    outer loop
      vertex 8.20933 18.974 30
      vertex 4.96262 20.5871 30.2555
      vertex 8.44128 19.2171 32.6616
    endloop
  endfacet
  facet normal 0.434205 0.892868 -0.119389
    outer loop
      vertex 4.96262 20.5871 30.2555
      vertex 8.20933 18.974 30
      vertex 5.13852 20.4674 30
    endloop
  endfacet
  facet normal 0.652857 0.757318 -0.0157322
    outer loop
      vertex 11.344 16.6595 30
      vertex 11.8583 16.323 35.1447
      vertex 11.7853 16.2791 30
    endloop
  endfacet
  facet normal 0.652858 0.757317 -0.0157324
    outer loop
      vertex 11.8583 16.323 35.1447
      vertex 11.344 16.6595 30
      vertex 8.44128 19.2171 32.6616
    endloop
  endfacet
  facet normal -0.130392 0.850935 0.50883
    outer loop
      vertex -0.873121 18.6388 40
      vertex -3.27202 20.0777 36.9789
      vertex -6.66167 17.7518 40
    endloop
  endfacet
  facet normal -0.277663 0.93301 -0.2289
    outer loop
      vertex -2.54514 21.1176 30.4865
      vertex -2.48497 21.0162 30
      vertex -2.87694 20.8995 30
    endloop
  endfacet
  facet normal -0.389474 0.909975 -0.14232
    outer loop
      vertex -2.87694 20.8995 30
      vertex -8.01673 19.0531 32.26
      vertex -2.54514 21.1176 30.4865
    endloop
  endfacet
  facet normal -0.389474 0.909975 -0.14232
    outer loop
      vertex -8.01673 19.0531 32.26
      vertex -2.87694 20.8995 30
      vertex -7.79556 18.7943 30
    endloop
  endfacet
  facet normal -0.609904 0.778376 -0.148822
    outer loop
      vertex -8.01673 19.0531 32.26
      vertex -7.79556 18.7943 30
      vertex -10.8643 16.3898 30
    endloop
  endfacet
  facet normal -0.925786 0.247129 0.286089
    outer loop
      vertex -13.7133 6.64726 40
      vertex -12.6928 10.4701 40
      vertex -14.8114 9.53426 33.9528
    endloop
  endfacet
  facet normal -0.892658 0.371506 0.255236
    outer loop
      vertex -14.8114 9.53426 33.9528
      vertex -12.0001 12.1346 40
      vertex -11.9718 15.1106 35.7674
    endloop
  endfacet
  facet normal -0.892658 0.371507 0.255236
    outer loop
      vertex -12.0001 12.1346 40
      vertex -14.8114 9.53426 33.9528
      vertex -12.6928 10.4701 40
    endloop
  endfacet
  facet normal -0.0324089 -0.989815 -0.138622
    outer loop
      vertex -9.2595 -14.1451 30
      vertex -5.33741 -14.6911 32.9823
      vertex -9.60094 -14.1399 30.0432
    endloop
  endfacet
  facet normal -0.0324084 -0.989815 -0.138623
    outer loop
      vertex -5.33741 -14.6911 32.9823
      vertex -9.2595 -14.1451 30
      vertex -3.16231 -14.3447 30
    endloop
  endfacet
  facet normal 0.0538534 -0.848916 0.525778
    outer loop
      vertex -9.53685 -14.1627 30
      vertex -9.2595 -14.1451 30
      vertex -9.60094 -14.1399 30.0432
    endloop
  endfacet
  facet normal 0.517238 0.527742 -0.67376
    outer loop
      vertex 5.12985 -15.8121 30
      vertex 6.77374 -14.4565 32.3238
      vertex 6.56269 -15.9204 31.0152
    endloop
  endfacet
  facet normal 0.517239 0.527742 -0.67376
    outer loop
      vertex 6.77374 -14.4565 32.3238
      vertex 5.12985 -15.8121 30
      vertex 4.72289 -15.4133 30
    endloop
  endfacet
  facet normal 0.979981 -0.112966 0.163936
    outer loop
      vertex 14.8536 -2.70286 36.3423
      vertex 14.4828 -0.611322 40
      vertex 13.967 -5.08588 40
    endloop
  endfacet
  facet normal 0.11056 -0.966504 0.231619
    outer loop
      vertex 3.40961 -19.1075 34.6497
      vertex -0.00670186 -18.2161 40
      vertex -0.909729 -18.3839 39.7309
    endloop
  endfacet
  facet normal 0.110559 -0.966504 0.231619
    outer loop
      vertex -0.00670186 -18.2161 40
      vertex 3.40961 -19.1075 34.6497
      vertex 5.03794 -17.639 40
    endloop
  endfacet
  facet normal 0.305364 -0.933309 -0.18891
    outer loop
      vertex 9.33632 -16.7065 32.3677
      vertex 7.10947 -18.0548 35.4297
      vertex 3.40961 -19.1075 34.6497
    endloop
  endfacet
  facet normal -0.832166 -0.440543 0.33678
    outer loop
      vertex -9.45332 -15.8336 34.5263
      vertex -8.12393 -14.1603 40
      vertex -11.2402 -8.27387 40
    endloop
  endfacet
  facet normal -0.970951 -0.192774 0.141745
    outer loop
      vertex -14.2255 -2.75348 30
      vertex -14.041 -3.68258 30
      vertex -14.2566 -2.29548 30.4099
    endloop
  endfacet
  facet normal -0.0927137 -0.983007 -0.158432
    outer loop
      vertex 1.84483 -18.4523 31.5
      vertex 3.40961 -19.1075 34.6497
      vertex -0.804413 -18.414 32.8129
    endloop
  endfacet
  facet normal -0.0512169 -0.84144 -0.537917
    outer loop
      vertex -5.51833 -16.0397 31.7089
      vertex -4.60471 -18.6057 35.6359
      vertex -8.39417 -16.4769 32.6667
    endloop
  endfacet
  facet normal 0.789532 0.369357 0.490117
    outer loop
      vertex 13.1319 12.0043 40
      vertex 12.9818 12.8701 39.5892
      vertex 12.8757 12.552 40
    endloop
  endfacet
  facet normal 0.850482 0.497311 0.171354
    outer loop
      vertex 12.9818 12.8701 39.5892
      vertex 14.568 12.5457 32.6581
      vertex 11.8583 16.323 35.1447
    endloop
  endfacet
  facet normal 0.589389 0.798234 -0.124271
    outer loop
      vertex 8.44128 19.2171 32.6616
      vertex 11.344 16.6595 30
      vertex 8.20933 18.974 30
    endloop
  endfacet
  facet normal -0.96964 0.203941 -0.134931
    outer loop
      vertex -14.8114 9.53426 33.9528
      vertex -14.1723 9.95738 30
      vertex -15.1241 5.43187 30
    endloop
  endfacet
  facet normal -0.99731 0.0056175 0.0730868
    outer loop
      vertex -14.7126 2.99267 35.8037
      vertex -15.1241 5.43187 30
      vertex -15.1344 3.61803 30
    endloop
  endfacet
  facet normal -0.99731 0.00561755 0.0730868
    outer loop
      vertex -15.1241 5.43187 30
      vertex -14.7126 2.99267 35.8037
      vertex -14.8114 9.53426 33.9528
    endloop
  endfacet
  facet normal -0.532227 -0.477272 -0.699247
    outer loop
      vertex 9.2397 -13.8019 30
      vertex 10.087 -14.7467 30
      vertex 6.77374 -14.4565 32.3238
    endloop
  endfacet
  facet normal 0.736274 0.0590509 -0.674102
    outer loop
      vertex 6.77374 -14.4565 32.3238
      vertex 4.72289 -15.4133 30
      vertex 4.619 -14.1179 30
    endloop
  endfacet
  facet normal 0.0479646 -0.911888 0.407628
    outer loop
      vertex -0.00670186 -18.2161 40
      vertex -0.846708 -18.2603 40
      vertex -0.909729 -18.3839 39.7309
    endloop
  endfacet
  facet normal 0.958278 -0.261695 0.11497
    outer loop
      vertex 14.325 -5.23948 30
      vertex 14.2638 -5.05952 30.9197
      vertex 13.7734 -7.25933 30
    endloop
  endfacet
  facet normal 0.597224 0.516228 0.613867
    outer loop
      vertex -9.49051 -14.2163 30
      vertex -9.53685 -14.1627 30
      vertex -9.60094 -14.1399 30.0432
    endloop
  endfacet
  facet normal -0.826799 -0.534662 -0.17476
    outer loop
      vertex -9.60094 -14.1399 30.0432
      vertex -9.45332 -15.8336 34.5263
      vertex -11.9856 -10.667 30.7003
    endloop
  endfacet
  facet normal -0.591293 0.778947 0.20884
    outer loop
      vertex -8.01673 19.0531 32.26
      vertex -8.1382 16.8858 40
      vertex -7.52494 17.3513 40
    endloop
  endfacet
  facet normal -0.591294 0.778947 0.20884
    outer loop
      vertex -8.1382 16.8858 40
      vertex -8.01673 19.0531 32.26
      vertex -11.9718 15.1106 35.7674
    endloop
  endfacet
  facet normal 0.695734 -0.699197 -0.164555
    outer loop
      vertex 2.21896 -17.727 30
      vertex 3.29812 -16.6531 30
      vertex 1.84483 -18.4523 31.5
    endloop
  endfacet
  facet normal 0.0792938 -0.782585 -0.617474
    outer loop
      vertex 6.56269 -15.9204 31.0152
      vertex 9.33632 -16.7065 32.3677
      vertex 3.40961 -19.1075 34.6497
    endloop
  endfacet
  facet normal -0.46768 0.639195 -0.610495
    outer loop
      vertex -3.35326 -16.0877 30
      vertex -5.33741 -14.6911 32.9823
      vertex -2.95614 -15.7972 30
    endloop
  endfacet
  facet normal -0.46768 0.639196 -0.610495
    outer loop
      vertex -5.33741 -14.6911 32.9823
      vertex -3.35326 -16.0877 30
      vertex -5.51833 -16.0397 31.7089
    endloop
  endfacet
  facet normal -0.16902 -0.880034 0.443815
    outer loop
      vertex -0.909729 -18.3839 39.7309
      vertex -0.846708 -18.2603 40
      vertex -1.24938 -18.1829 40
    endloop
  endfacet
  facet normal -0.415561 -0.821908 0.389584
    outer loop
      vertex -9.59277 -14.1646 30
      vertex -9.49051 -14.2163 30
      vertex -9.60094 -14.1399 30.0432
    endloop
  endfacet
  facet normal -0.983843 -0.162178 0.0758319
    outer loop
      vertex -14.4619 -1.24193 30
      vertex -14.7126 2.99267 35.8037
      vertex -14.8528 1.12993 30
    endloop
  endfacet
  facet normal -0.983843 -0.162178 0.0758317
    outer loop
      vertex -14.7126 2.99267 35.8037
      vertex -14.4619 -1.24193 30
      vertex -14.2566 -2.29548 30.4099
    endloop
  endfacet
  facet normal -0.998315 -0.0185647 -0.0549733
    outer loop
      vertex -14.2345 -2.27219 30
      vertex -14.2255 -2.75348 30
      vertex -14.2566 -2.29548 30.4099
    endloop
  endfacet
  facet normal -0.625772 -0.722719 0.293406
    outer loop
      vertex -9.59277 -14.1646 30
      vertex -9.60094 -14.1399 30.0432
      vertex -9.61297 -14.1471 30
    endloop
  endfacet
  facet normal 0.949267 0.211554 -0.232674
    outer loop
      vertex 15.8536 8.38199 31.7624
      vertex 15.7027 7.12058 30
      vertex 15.2627 9.09502 30
    endloop
  endfacet
  facet normal 0.888749 0.312936 0.334956
    outer loop
      vertex 13.1319 12.0043 40
      vertex 15.3332 8.63437 37.3076
      vertex 12.9818 12.8701 39.5892
    endloop
  endfacet
  facet normal 0.888749 0.312936 0.334956
    outer loop
      vertex 15.3332 8.63437 37.3076
      vertex 13.1319 12.0043 40
      vertex 14.5417 8.00036 40
    endloop
  endfacet
  facet normal 0.89818 0.397911 0.186921
    outer loop
      vertex 15.3332 8.63437 37.3076
      vertex 14.568 12.5457 32.6581
      vertex 12.9818 12.8701 39.5892
    endloop
  endfacet
  facet normal -0.891364 0.453284 0.0019048
    outer loop
      vertex -12.2278 14.6313 30
      vertex -11.9718 15.1106 35.7674
      vertex -11.7852 15.5017 30
    endloop
  endfacet
  facet normal -0.891364 0.453283 0.00190484
    outer loop
      vertex -11.9718 15.1106 35.7674
      vertex -12.2278 14.6313 30
      vertex -14.8114 9.53426 33.9528
    endloop
  endfacet
  facet normal 0.986854 -0.133078 0.0917029
    outer loop
      vertex 14.325 -5.23948 30
      vertex 14.6373 -2.92353 30
      vertex 14.2638 -5.05952 30.9197
    endloop
  endfacet
  facet normal -0.52428 -0.797655 0.298122
    outer loop
      vertex -5.5591 -16.3474 40
      vertex -4.60471 -18.6057 35.6359
      vertex -4.20539 -17.2371 40
    endloop
  endfacet
  facet normal -0.524279 -0.797655 0.298122
    outer loop
      vertex -4.60471 -18.6057 35.6359
      vertex -5.5591 -16.3474 40
      vertex -9.45332 -15.8336 34.5263
    endloop
  endfacet
  facet normal -0.693926 0.719564 0.0263547
    outer loop
      vertex -10.8643 16.3898 30
      vertex -11.9718 15.1106 35.7674
      vertex -8.01673 19.0531 32.26
    endloop
  endfacet
  facet normal -0.693926 0.719564 0.0263546
    outer loop
      vertex -11.9718 15.1106 35.7674
      vertex -10.8643 16.3898 30
      vertex -11.7852 15.5017 30
    endloop
  endfacet
  facet normal -0.961613 -0.191531 0.196511
    outer loop
      vertex -12.4838 -3.89184 40
      vertex -13.2997 0.204366 40
      vertex -14.7126 2.99267 35.8037
    endloop
  endfacet
  facet normal -0.916592 -0.237492 0.321646
    outer loop
      vertex -14.041 -3.68258 30
      vertex -11.9856 -10.667 30.7003
      vertex -14.2566 -2.29548 30.4099
    endloop
  endfacet
  facet normal -0.916592 -0.237492 0.321646
    outer loop
      vertex -11.9856 -10.667 30.7003
      vertex -14.041 -3.68258 30
      vertex -12.2049 -10.7691 30
    endloop
  endfacet
  facet normal 0.0664493 0.990979 -0.116383
    outer loop
      vertex -2.00814 21.0245 30
      vertex 4.96262 20.5871 30.2555
      vertex 4.86446 20.5637 30
    endloop
  endfacet
  facet normal 0.0664494 0.990979 -0.116386
    outer loop
      vertex 4.96262 20.5871 30.2555
      vertex -2.00814 21.0245 30
      vertex -2.54514 21.1176 30.4865
    endloop
  endfacet
  facet normal -0.0144845 0.987563 0.156557
    outer loop
      vertex 3.59787 20.2888 36.2831
      vertex -2.54514 21.1176 30.4865
      vertex -3.27202 20.0777 36.9789
    endloop
  endfacet
  facet normal 0.0723496 0.995218 0.0656282
    outer loop
      vertex 3.59787 20.2888 36.2831
      vertex 4.96262 20.5871 30.2555
      vertex -2.54514 21.1176 30.4865
    endloop
  endfacet
  facet normal 0.361871 0.906959 0.21558
    outer loop
      vertex 8.44128 19.2171 32.6616
      vertex 8.21877 17.5616 40
      vertex 8.30556 17.527 40
    endloop
  endfacet
  facet normal 0.361872 0.906959 0.21558
    outer loop
      vertex 8.21877 17.5616 40
      vertex 8.44128 19.2171 32.6616
      vertex 3.59787 20.2888 36.2831
    endloop
  endfacet
  facet normal 0.68088 0.65171 0.33418
    outer loop
      vertex 8.97519 16.8455 40
      vertex 11.8583 16.323 35.1447
      vertex 8.35393 17.4945 40
    endloop
  endfacet
  facet normal 0.68088 0.65171 0.33418
    outer loop
      vertex 11.8583 16.323 35.1447
      vertex 8.97519 16.8455 40
      vertex 12.9818 12.8701 39.5892
    endloop
  endfacet
  facet normal 0.0147104 0.907213 0.420414
    outer loop
      vertex 3.59787 20.2888 36.2831
      vertex -0.873121 18.6388 40
      vertex 2.05362 18.5914 40
    endloop
  endfacet
  facet normal 0.0147104 0.907213 0.420414
    outer loop
      vertex -0.873121 18.6388 40
      vertex 3.59787 20.2888 36.2831
      vertex -3.27202 20.0777 36.9789
    endloop
  endfacet
  facet normal -0.410484 0.884777 0.22062
    outer loop
      vertex -3.27202 20.0777 36.9789
      vertex -7.52494 17.3513 40
      vertex -6.66167 17.7518 40
    endloop
  endfacet
  facet normal -0.410483 0.884777 0.22062
    outer loop
      vertex -7.52494 17.3513 40
      vertex -3.27202 20.0777 36.9789
      vertex -8.01673 19.0531 32.26
    endloop
  endfacet
  facet normal 0.928389 0.325295 -0.179658
    outer loop
      vertex 14.568 12.5457 32.6581
      vertex 15.2627 9.09502 30
      vertex 14.1543 12.2585 30
    endloop
  endfacet
  facet normal 0.928389 0.325295 -0.179658
    outer loop
      vertex 15.2627 9.09502 30
      vertex 14.568 12.5457 32.6581
      vertex 15.8536 8.38199 31.7624
    endloop
  endfacet
  facet normal 0.324128 0.922612 -0.209111
    outer loop
      vertex 4.96262 20.5871 30.2555
      vertex 5.13852 20.4674 30
      vertex 4.86446 20.5637 30
    endloop
  endfacet
  facet normal -0.0170396 0.978377 -0.206127
    outer loop
      vertex -2.00814 21.0245 30
      vertex -2.48497 21.0162 30
      vertex -2.54514 21.1176 30.4865
    endloop
  endfacet
  facet normal -0.917933 0.381887 -0.107524
    outer loop
      vertex -12.2278 14.6313 30
      vertex -14.1723 9.95738 30
      vertex -14.8114 9.53426 33.9528
    endloop
  endfacet
  facet normal 0.96107 -0.249287 0.119169
    outer loop
      vertex 2.21896 -17.727 30
      vertex 1.84483 -18.4523 31.5
      vertex 1.76723 -19.4685 30
    endloop
  endfacet
  facet normal -0.928102 -0.335807 0.160811
    outer loop
      vertex -11.9856 -10.667 30.7003
      vertex -11.2402 -8.27387 40
      vertex -11.7503 -6.86405 40
    endloop
  endfacet
  facet normal -0.928102 -0.335807 0.160811
    outer loop
      vertex -11.2402 -8.27387 40
      vertex -11.9856 -10.667 30.7003
      vertex -9.45332 -15.8336 34.5263
    endloop
  endfacet
  facet normal 0.971691 -0.148744 0.183554
    outer loop
      vertex 14.4828 -0.611322 40
      vertex 15.8633 3.30531 35.8657
      vertex 14.7783 1.3192 40
    endloop
  endfacet
  facet normal 0.971691 -0.148744 0.183554
    outer loop
      vertex 15.8633 3.30531 35.8657
      vertex 14.4828 -0.611322 40
      vertex 14.8536 -2.70286 36.3423
    endloop
  endfacet
  facet normal 0.648048 0.605404 0.462082
    outer loop
      vertex 12.5869 12.9793 40
      vertex 12.9818 12.8701 39.5892
      vertex 8.97519 16.8455 40
    endloop
  endfacet
  facet normal 0.957202 0.278953 0.0771379
    outer loop
      vertex 15.3332 8.63437 37.3076
      vertex 15.8536 8.38199 31.7624
      vertex 14.568 12.5457 32.6581
    endloop
  endfacet
  facet normal -0.710726 0.577693 0.401422
    outer loop
      vertex -8.1382 16.8858 40
      vertex -11.9718 15.1106 35.7674
      vertex -12.0001 12.1346 40
    endloop
  endfacet
  facet normal -0.401876 0.641815 -0.653123
    outer loop
      vertex 9.89764 -14.8653 30
      vertex 6.77374 -14.4565 32.3238
      vertex 10.087 -14.7467 30
    endloop
  endfacet
  facet normal -0.401877 0.641813 -0.653124
    outer loop
      vertex 6.77374 -14.4565 32.3238
      vertex 9.89764 -14.8653 30
      vertex 6.56269 -15.9204 31.0152
    endloop
  endfacet
  facet normal -0.317776 0.941146 0.115167
    outer loop
      vertex -3.27202 20.0777 36.9789
      vertex -2.54514 21.1176 30.4865
      vertex -8.01673 19.0531 32.26
    endloop
  endfacet
  facet normal 1 -0 0
    outer loop
      vertex -3 -5 40
      vertex -3 5 30
      vertex -3 5 40
    endloop
  endfacet
  facet normal 1 0 0
    outer loop
      vertex -3 5 30
      vertex -3 -5 40
      vertex -3 -5 30
    endloop
  endfacet
  facet normal -1 0 0
    outer loop
      vertex 3 -5 30
      vertex 3 5 40
      vertex 3 5 30
    endloop
  endfacet
  facet normal -1 -0 0
    outer loop
      vertex 3 5 40
      vertex 3 -5 30
      vertex 3 -5 40
    endloop
  endfacet
  facet normal 0 -1 0
    outer loop
      vertex -3 5 30
      vertex 3 5 40
      vertex -3 5 40
    endloop
  endfacet
  facet normal 0 -1 -0
    outer loop
      vertex 3 5 40
      vertex -3 5 30
      vertex 3 5 30
    endloop
  endfacet
  facet normal 0 1 -0
    outer loop
      vertex 3 -5 30
      vertex -3 -5 40
      vertex 3 -5 40
    endloop
  endfacet
  facet normal 0 1 0
    outer loop
      vertex -3 -5 40
      vertex 3 -5 30
      vertex -3 -5 30
    endloop
  endfacet
  facet normal -0 0 1
    outer loop
      vertex 3 5 40
      vertex 14.7783 1.3192 40
      vertex 14.5779 6.0678 40
    endloop
  endfacet
  facet normal 0 0 1
    outer loop
      vertex 3 5 40
      vertex 14.5779 6.0678 40
      vertex 14.5417 8.00036 40
    endloop
  endfacet
  facet normal 0 0 1
    outer loop
      vertex 14.7783 1.3192 40
      vertex 3 5 40
      vertex 14.4828 -0.611322 40
    endloop
  endfacet
  facet normal 0 0 1
    outer loop
      vertex 3 -5 40
      vertex 14.4828 -0.611322 40
      vertex 3 5 40
    endloop
  endfacet
  facet normal 0 0 1
    outer loop
      vertex 3 5 40
      vertex 14.5417 8.00036 40
      vertex 13.1319 12.0043 40
    endloop
  endfacet
  facet normal 0 0 1
    outer loop
      vertex 12.5869 12.9793 40
      vertex 13.1319 12.0043 40
      vertex 12.8757 12.552 40
    endloop
  endfacet
  facet normal 0 0 1
    outer loop
      vertex 13.1319 12.0043 40
      vertex 12.5869 12.9793 40
      vertex 3 5 40
    endloop
  endfacet
  facet normal 0 0 1
    outer loop
      vertex 14.4828 -0.611322 40
      vertex 3 -5 40
      vertex 13.967 -5.08588 40
    endloop
  endfacet
  facet normal 0 0 1
    outer loop
      vertex 3 5 40
      vertex 12.5869 12.9793 40
      vertex 8.97519 16.8455 40
    endloop
  endfacet
  facet normal 0 0 1
    outer loop
      vertex 8.21877 17.5616 40
      vertex 8.97519 16.8455 40
      vertex 8.35393 17.4945 40
    endloop
  endfacet
  facet normal 0 0 1
    outer loop
      vertex 8.21877 17.5616 40
      vertex 8.35393 17.4945 40
      vertex 8.30556 17.527 40
    endloop
  endfacet
  facet normal 0 0 1
    outer loop
      vertex 2.05362 18.5914 40
      vertex 8.97519 16.8455 40
      vertex 8.21877 17.5616 40
    endloop
  endfacet
  facet normal 0 0 1
    outer loop
      vertex 13.967 -5.08588 40
      vertex 3 -5 40
      vertex 13.5935 -6.34045 40
    endloop
  endfacet
  facet normal 0 0 1
    outer loop
      vertex 10.2582 -13.5076 40
      vertex 3 -5 40
      vertex 6.65142 -16.8437 40
    endloop
  endfacet
  facet normal 0 -0 1
    outer loop
      vertex 5.03794 -17.639 40
      vertex 6.65142 -16.8437 40
      vertex 3 -5 40
    endloop
  endfacet
  facet normal 0 0 1
    outer loop
      vertex 13.5935 -6.34045 40
      vertex 3 -5 40
      vertex 10.2582 -13.5076 40
    endloop
  endfacet
  facet normal 0 0 1
    outer loop
      vertex 8.97519 16.8455 40
      vertex 2.05362 18.5914 40
      vertex 3 5 40
    endloop
  endfacet
  facet normal 0 0 1
    outer loop
      vertex -0.873121 18.6388 40
      vertex 3 5 40
      vertex 2.05362 18.5914 40
    endloop
  endfacet
  facet normal 0 0 1
    outer loop
      vertex -0.873121 18.6388 40
      vertex -3 5 40
      vertex 3 5 40
    endloop
  endfacet
  facet normal -0 0 1
    outer loop
      vertex -13.2997 0.204366 40
      vertex -3 -5 40
      vertex -3 5 40
    endloop
  endfacet
  facet normal 0 0 1
    outer loop
      vertex -3 -5 40
      vertex -5.5591 -16.3474 40
      vertex -4.20539 -17.2371 40
    endloop
  endfacet
  facet normal -0 0 1
    outer loop
      vertex -6.66167 17.7518 40
      vertex -3 5 40
      vertex -0.873121 18.6388 40
    endloop
  endfacet
  facet normal -0 0 1
    outer loop
      vertex -8.1382 16.8858 40
      vertex -3 5 40
      vertex -6.66167 17.7518 40
    endloop
  endfacet
  facet normal 0 0 1
    outer loop
      vertex -8.1382 16.8858 40
      vertex -6.66167 17.7518 40
      vertex -7.52494 17.3513 40
    endloop
  endfacet
  facet normal 0 0 1
    outer loop
      vertex -3 -5 40
      vertex -12.4838 -3.89184 40
      vertex -12.0476 -5.74882 40
    endloop
  endfacet
  facet normal 0 0 1
    outer loop
      vertex -3 5 40
      vertex -8.1382 16.8858 40
      vertex -12.0001 12.1346 40
    endloop
  endfacet
  facet normal 0 0 1
    outer loop
      vertex -3 -5 40
      vertex -8.12393 -14.1603 40
      vertex -5.5591 -16.3474 40
    endloop
  endfacet
  facet normal 0 0 1
    outer loop
      vertex -3 -5 40
      vertex -11.2402 -8.27387 40
      vertex -8.12393 -14.1603 40
    endloop
  endfacet
  facet normal 0 0 1
    outer loop
      vertex -3 5 40
      vertex -12.0001 12.1346 40
      vertex -12.6928 10.4701 40
    endloop
  endfacet
  facet normal 0 0 1
    outer loop
      vertex -3 -5 40
      vertex -11.7503 -6.86405 40
      vertex -11.2402 -8.27387 40
    endloop
  endfacet
  facet normal 0 0 1
    outer loop
      vertex -3 -5 40
      vertex -12.0476 -5.74882 40
      vertex -11.7503 -6.86405 40
    endloop
  endfacet
  facet normal -0 0 1
    outer loop
      vertex -13.7133 6.64726 40
      vertex -3 5 40
      vertex -12.6928 10.4701 40
    endloop
  endfacet
  facet normal 0 0 1
    outer loop
      vertex -3 -5 40
      vertex -13.2997 0.204366 40
      vertex -12.4838 -3.89184 40
    endloop
  endfacet
  facet normal 0 0 1
    outer loop
      vertex -3 5 40
      vertex -13.7133 6.64726 40
      vertex -13.7222 6.43391 40
    endloop
  endfacet
  facet normal 0 0 1
    outer loop
      vertex -3 5 40
      vertex -13.7222 6.43391 40
      vertex -13.2997 0.204366 40
    endloop
  endfacet
  facet normal 0 0 1
    outer loop
      vertex 6.65142 -16.8437 40
      vertex 5.03794 -17.639 40
      vertex 5.95767 -17.4163 40
    endloop
  endfacet
  facet normal 0 0 1
    outer loop
      vertex 3 -5 40
      vertex -0.00670186 -18.2161 40
      vertex 5.03794 -17.639 40
    endloop
  endfacet
  facet normal -0 0 1
    outer loop
      vertex -3 -5 40
      vertex -0.00670186 -18.2161 40
      vertex 3 -5 40
    endloop
  endfacet
  facet normal 0 0 1
    outer loop
      vertex -0.00670186 -18.2161 40
      vertex -1.24938 -18.1829 40
      vertex -0.846708 -18.2603 40
    endloop
  endfacet
  facet normal 0 0 1
    outer loop
      vertex -0.00670186 -18.2161 40
      vertex -3 -5 40
      vertex -1.24938 -18.1829 40
    endloop
  endfacet
  facet normal 0 0 1
    outer loop
      vertex -1.24938 -18.1829 40
      vertex -3 -5 40
      vertex -4.20539 -17.2371 40
    endloop
  endfacet
  facet normal 0 0 -1
    outer loop
      vertex -9.49051 -14.2163 30
      vertex -9.59277 -14.1646 30
      vertex -9.53685 -14.1627 30
    endloop
  endfacet
  facet normal -0 0 -1
    outer loop
      vertex 4.72289 -15.4133 30
      vertex 3.95367 -16.2097 30
      vertex 4.619 -14.1179 30
    endloop
  endfacet
  facet normal 0 0 -1
    outer loop
      vertex 3.95367 -16.2097 30
      vertex 4.72289 -15.4133 30
      vertex 5.12985 -15.8121 30
    endloop
  endfacet
  facet normal -0 0 -1
    outer loop
      vertex 10.1952 -14.8397 30
      vertex 9.89764 -14.8653 30
      vertex 10.087 -14.7467 30
    endloop
  endfacet
  facet normal 0 0 -1
    outer loop
      vertex 3 5 30
      vertex 15.7027 7.12058 30
      vertex 15.5792 4.58369 30
    endloop
  endfacet
  facet normal 0 0 -1
    outer loop
      vertex 3 5 30
      vertex 15.5792 4.58369 30
      vertex 15.4394 1.4894 30
    endloop
  endfacet
  facet normal 0 0 -1
    outer loop
      vertex 3 5 30
      vertex 15.4394 1.4894 30
      vertex 15.221 0.202359 30
    endloop
  endfacet
  facet normal 0 0 -1
    outer loop
      vertex 3 -5 30
      vertex 15.221 0.202359 30
      vertex 14.6373 -2.92353 30
    endloop
  endfacet
  facet normal 0 0 -1
    outer loop
      vertex 3 -5 30
      vertex 14.6373 -2.92353 30
      vertex 14.325 -5.23948 30
    endloop
  endfacet
  facet normal -0 0 -1
    outer loop
      vertex 15.7027 7.12058 30
      vertex 3 5 30
      vertex 15.2627 9.09502 30
    endloop
  endfacet
  facet normal 0 0 -1
    outer loop
      vertex 3 -5 30
      vertex 14.325 -5.23948 30
      vertex 13.7734 -7.25933 30
    endloop
  endfacet
  facet normal 0 0 -1
    outer loop
      vertex 3 -5 30
      vertex 13.7734 -7.25933 30
      vertex 12.5638 -11.7492 30
    endloop
  endfacet
  facet normal -0 0 -1
    outer loop
      vertex 15.2627 9.09502 30
      vertex 3 5 30
      vertex 14.1543 12.2585 30
    endloop
  endfacet
  facet normal -0 0 -1
    outer loop
      vertex 14.1543 12.2585 30
      vertex 3 5 30
      vertex 12.1438 15.7885 30
    endloop
  endfacet
  facet normal 0 -0 -1
    outer loop
      vertex 11.344 16.6595 30
      vertex 12.1438 15.7885 30
      vertex 3 5 30
    endloop
  endfacet
  facet normal 0 0 -1
    outer loop
      vertex 9.2397 -13.8019 30
      vertex 12.5638 -11.7492 30
      vertex 10.2623 -14.7804 30
    endloop
  endfacet
  facet normal 0 0 -1
    outer loop
      vertex 10.087 -14.7467 30
      vertex 10.2623 -14.7804 30
      vertex 10.1952 -14.8397 30
    endloop
  endfacet
  facet normal 0 0 -1
    outer loop
      vertex 10.2623 -14.7804 30
      vertex 10.087 -14.7467 30
      vertex 9.2397 -13.8019 30
    endloop
  endfacet
  facet normal 0 0 -1
    outer loop
      vertex 3 -5 30
      vertex 12.5638 -11.7492 30
      vertex 9.2397 -13.8019 30
    endloop
  endfacet
  facet normal 0 0 -1
    outer loop
      vertex 12.1438 15.7885 30
      vertex 11.344 16.6595 30
      vertex 11.7853 16.2791 30
    endloop
  endfacet
  facet normal 0 0 -1
    outer loop
      vertex 4.619 -14.1179 30
      vertex 9.2397 -13.8019 30
      vertex 6.55004 -14.5851 30
    endloop
  endfacet
  facet normal -0 0 -1
    outer loop
      vertex 11.344 16.6595 30
      vertex 3 5 30
      vertex 8.20933 18.974 30
    endloop
  endfacet
  facet normal -0 0 -1
    outer loop
      vertex 8.20933 18.974 30
      vertex 3 5 30
      vertex 5.13852 20.4674 30
    endloop
  endfacet
  facet normal -0 0 -1
    outer loop
      vertex 9.2397 -13.8019 30
      vertex 4.619 -14.1179 30
      vertex 3 -5 30
    endloop
  endfacet
  facet normal 0 0 -1
    outer loop
      vertex 3.29812 -16.6531 30
      vertex 4.619 -14.1179 30
      vertex 3.95367 -16.2097 30
    endloop
  endfacet
  facet normal 0 0 -1
    outer loop
      vertex 4.619 -14.1179 30
      vertex 3.29812 -16.6531 30
      vertex -3.16231 -14.3447 30
    endloop
  endfacet
  facet normal -0 0 -1
    outer loop
      vertex 15.221 0.202359 30
      vertex 3 -5 30
      vertex 3 5 30
    endloop
  endfacet
  facet normal -0 0 -1
    outer loop
      vertex 5.13852 20.4674 30
      vertex 3 5 30
      vertex 4.86446 20.5637 30
    endloop
  endfacet
  facet normal 0 0 -1
    outer loop
      vertex 3 5 30
      vertex -2.00814 21.0245 30
      vertex 4.86446 20.5637 30
    endloop
  endfacet
  facet normal 0 0 -1
    outer loop
      vertex -3 5 30
      vertex -2.00814 21.0245 30
      vertex 3 5 30
    endloop
  endfacet
  facet normal 0 -0 -1
    outer loop
      vertex -2.87694 20.8995 30
      vertex -2.00814 21.0245 30
      vertex -3 5 30
    endloop
  endfacet
  facet normal 0 0 -1
    outer loop
      vertex -2.00814 21.0245 30
      vertex -2.87694 20.8995 30
      vertex -2.48497 21.0162 30
    endloop
  endfacet
  facet normal 0 0 -1
    outer loop
      vertex -14.2345 -2.27219 30
      vertex -3 -5 30
      vertex -14.041 -3.68258 30
    endloop
  endfacet
  facet normal 0 0 -1
    outer loop
      vertex -15.1344 3.61803 30
      vertex -3 5 30
      vertex -14.8528 1.12993 30
    endloop
  endfacet
  facet normal 0 0 -1
    outer loop
      vertex -12.2049 -10.7691 30
      vertex -3.16231 -14.3447 30
      vertex -9.2595 -14.1451 30
    endloop
  endfacet
  facet normal 0 0 -1
    outer loop
      vertex -9.66467 -14.0808 30
      vertex -9.2595 -14.1451 30
      vertex -9.53685 -14.1627 30
    endloop
  endfacet
  facet normal 0 0 -1
    outer loop
      vertex -9.61297 -14.1471 30
      vertex -9.53685 -14.1627 30
      vertex -9.59277 -14.1646 30
    endloop
  endfacet
  facet normal 0 0 -1
    outer loop
      vertex -9.53685 -14.1627 30
      vertex -9.61297 -14.1471 30
      vertex -9.66467 -14.0808 30
    endloop
  endfacet
  facet normal 0 0 -1
    outer loop
      vertex -9.2595 -14.1451 30
      vertex -9.66467 -14.0808 30
      vertex -12.2049 -10.7691 30
    endloop
  endfacet
  facet normal 0 0 -1
    outer loop
      vertex -3 -5 30
      vertex -14.4619 -1.24193 30
      vertex -3 5 30
    endloop
  endfacet
  facet normal 0 0 -1
    outer loop
      vertex -3 5 30
      vertex -14.4619 -1.24193 30
      vertex -14.8528 1.12993 30
    endloop
  endfacet
  facet normal 0 0 -1
    outer loop
      vertex -3.16231 -14.3447 30
      vertex -12.2049 -10.7691 30
      vertex -14.041 -3.68258 30
    endloop
  endfacet
  facet normal 0 0 -1
    outer loop
      vertex -14.4619 -1.24193 30
      vertex -3 -5 30
      vertex -14.2345 -2.27219 30
    endloop
  endfacet
  facet normal 0 -0 -1
    outer loop
      vertex -12.2278 14.6313 30
      vertex -3 5 30
      vertex -14.1723 9.95738 30
    endloop
  endfacet
  facet normal 0 0 -1
    outer loop
      vertex -10.8643 16.3898 30
      vertex -12.2278 14.6313 30
      vertex -11.7852 15.5017 30
    endloop
  endfacet
  facet normal 0 0 -1
    outer loop
      vertex -14.2345 -2.27219 30
      vertex -14.041 -3.68258 30
      vertex -14.2255 -2.75348 30
    endloop
  endfacet
  facet normal 0 0 -1
    outer loop
      vertex -3 5 30
      vertex -7.79556 18.7943 30
      vertex -2.87694 20.8995 30
    endloop
  endfacet
  facet normal 0 -0 -1
    outer loop
      vertex -10.8643 16.3898 30
      vertex -3 5 30
      vertex -12.2278 14.6313 30
    endloop
  endfacet
  facet normal 0 0 -1
    outer loop
      vertex -3 5 30
      vertex -10.8643 16.3898 30
      vertex -7.79556 18.7943 30
    endloop
  endfacet
  facet normal 0 -0 -1
    outer loop
      vertex -15.1241 5.43187 30
      vertex -3 5 30
      vertex -15.1344 3.61803 30
    endloop
  endfacet
  facet normal 0 0 -1
    outer loop
      vertex -3 5 30
      vertex -15.1241 5.43187 30
      vertex -14.1723 9.95738 30
    endloop
  endfacet
  facet normal 0 0 -1
    outer loop
      vertex -1.93769 -16.6448 30
      vertex -3.35326 -16.0877 30
      vertex -2.95614 -15.7972 30
    endloop
  endfacet
  facet normal 0 0 -1
    outer loop
      vertex -1.93769 -16.6448 30
      vertex 3.29812 -16.6531 30
      vertex 2.21896 -17.727 30
    endloop
  endfacet
  facet normal 0 0 -1
    outer loop
      vertex 0.363203 -19.5378 30
      vertex 2.21896 -17.727 30
      vertex 1.76723 -19.4685 30
    endloop
  endfacet
  facet normal -0 0 -1
    outer loop
      vertex 2.21896 -17.727 30
      vertex 0.363203 -19.5378 30
      vertex -1.93769 -16.6448 30
    endloop
  endfacet
  facet normal 0 0 -1
    outer loop
      vertex -1.93769 -16.6448 30
      vertex 0.363203 -19.5378 30
      vertex -0.0845951 -19.6413 30
    endloop
  endfacet
  facet normal 0 0 -1
    outer loop
      vertex 3.29812 -16.6531 30
      vertex -1.93769 -16.6448 30
      vertex -3.16231 -14.3447 30
    endloop
  endfacet
  facet normal 0 0 -1
    outer loop
      vertex -3.16231 -14.3447 30
      vertex -1.93769 -16.6448 30
      vertex -2.95614 -15.7972 30
    endloop
  endfacet
  facet normal -0 0 -1
    outer loop
      vertex 4.619 -14.1179 30
      vertex -3.16231 -14.3447 30
      vertex 3 -5 30
    endloop
  endfacet
  facet normal 0 0 -1
    outer loop
      vertex -14.041 -3.68258 30
      vertex -3 -5 30
      vertex -3.16231 -14.3447 30
    endloop
  endfacet
  facet normal -0 0 -1
    outer loop
      vertex 3 -5 30
      vertex -3.16231 -14.3447 30
      vertex -3 -5 30
    endloop
  endfacet
endsolid OpenSCAD_Model
